<?xml version="1.0" encoding="UTF-8"?>
<svg width="123px" height="182px" viewBox="0 0 123 182" version="1.1" xmlns="http://www.w3.org/2000/svg" xmlns:xlink="http://www.w3.org/1999/xlink">
    <!-- Generator: Sketch 55 (78076) - https://sketchapp.com -->
    <title>contestify hi def</title>
    <desc>Created with Sketch.</desc>
    <g id="Page-1" stroke="none" stroke-width="1" fill="none" fill-rule="evenodd">
        <g id="Artboard" transform="translate(-102.000000, -143.000000)">
            <g id="contestify-hi-def" transform="translate(102.000000, 143.000000)">
                <polygon id="Fill-2" fill="#003A5D" points="28.6661 97.822 28.6661 181.527 61.6281 159.404 94.5911 181.527 94.5911 97.822"></polygon>
                <polygon id="Fill-3" fill="#5FC3AD" points="72.4667 166.6779 61.6277 159.4039 50.7897 166.6859 50.7897 86.2799 72.4667 86.2799"></polygon>
                <path d="M122.2977,61.6261 C122.2977,95.1331 95.1347,122.2961 61.6277,122.2961 C28.1207,122.2961 0.9587,95.1331 0.9587,61.6261 C0.9587,28.1191 28.1207,0.9571 61.6277,0.9571 C95.1347,0.9571 122.2977,28.1191 122.2977,61.6261" id="Fill-4" fill="#ED2F48"></path>
                <path d="M104.5282,61.6261 C104.5282,85.3191 85.3212,104.5261 61.6282,104.5261 C37.9352,104.5261 18.7282,85.3191 18.7282,61.6261 C18.7282,37.9341 37.9352,18.7271 61.6282,18.7271 C85.3212,18.7271 104.5282,37.9341 104.5282,61.6261" id="Fill-6" fill="#FFFFFF"></path>
                <polygon id="Fill-8" fill="#ED2F48" points="61.6278 26.4601 74.1598 36.4851 61.6278 46.5111"></polygon>
                <polygon id="Fill-10" fill="#AF222A" points="74.16 36.4855 49.097 56.5365 49.097 72.1315 74.16 52.0805"></polygon>
                <polygon id="Fill-12" fill="#ED2F48" points="49.0966 72.131 61.6276 82.156 74.1596 72.131 74.1596 52.08"></polygon>
                <polygon id="Fill-14" fill="#003A5D" points="42.8311 94.6874 80.4261 94.6874 80.4261 87.1684 42.8311 87.1684"></polygon>
            </g>
        </g>
    </g>
</svg>