<?xml version="1.0" encoding="UTF-8"?>
<svg width="122px" height="181px" viewBox="0 0 122 181" version="1.1" xmlns="http://www.w3.org/2000/svg" xmlns:xlink="http://www.w3.org/1999/xlink">
    <!-- Generator: Sketch 55 (78076) - https://sketchapp.com -->
    <title>contestify lo def</title>
    <desc>Created with Sketch.</desc>
    <g id="Page-1" stroke="none" stroke-width="1" fill="none" fill-rule="evenodd">
        <g id="Artboard" transform="translate(-259.000000, -144.000000)" fill="#000000">
            <g id="contestify-lo-def" transform="translate(259.000000, 144.000000)">
                <polygon id="Fill-2" points="27.575 106.5 27.6661 180.527 60.6281 158.404 93.5911 180.527 93.5 106.5"></polygon>
                <path d="M121.339,60.669 C121.339,94.176 94.176,121.339 60.669,121.339 C27.162,121.339 -2.84217094e-14,94.176 -2.84217094e-14,60.669 C-2.84217094e-14,27.162 27.162,-2.84217094e-14 60.669,-2.84217094e-14 C94.176,-2.84217094e-14 121.339,27.162 121.339,60.669 Z M103.5282,60.6261 C103.5282,36.9341 84.3212,17.7271 60.6282,17.7271 C36.9352,17.7271 17.7282,36.9341 17.7282,60.6261 C17.7282,84.3191 36.9352,103.5261 60.6282,103.5261 C84.3212,103.5261 103.5282,84.3191 103.5282,60.6261 Z" id="Combined-Shape"></path>
                <path d="M61,26 L73,35.5001187 L61,45 L61,26 Z M74,37 L74,50.6089561 L49,71 L49,57.3912846 L74,37 Z M74,72.6180436 L61.1452092,83 L49,73.1909782 L74,53 L74,72.6180436 Z M42,88 L80,88 L80,96 L42,96 L42,88 Z" id="Combined-Shape"></path>
            </g>
        </g>
    </g>
</svg>